# Blender 3.2.0
# www.blender.org
mtllib CUBE_TST.mtl
o crit-cube
v 1.000000 1.000000 -9.660277
v 1.000000 -1.000000 -9.660277
v 1.000000 1.000000 -7.660277
v 1.000000 -1.000000 -7.660277
v -1.000000 1.000000 -9.660277
v -1.000000 -1.000000 -9.660277
v -1.000000 1.000000 -7.660277
v -1.000000 -1.000000 -7.660277
vn -0.0000 1.0000 -0.0000
vn -0.0000 -0.0000 1.0000
vn -1.0000 -0.0000 -0.0000
vn -0.0000 -1.0000 -0.0000
vn 1.0000 -0.0000 -0.0000
vn -0.0000 -0.0000 -1.0000
vt 0.625000 0.500000
vt 0.375000 0.500000
vt 0.625000 0.750000
vt 0.375000 0.750000
vt 0.875000 0.500000
vt 0.625000 0.250000
vt 0.125000 0.500000
vt 0.375000 0.250000
vt 0.875000 0.750000
vt 0.625000 1.000000
vt 0.625000 0.000000
vt 0.375000 0.000000
vt 0.375000 1.000000
vt 0.125000 0.750000
s 0
usemtl Material1
f 5/5/1 3/3/1 1/1/1
f 3/3/2 8/13/2 4/4/2
f 7/11/3 6/8/3 8/12/3
f 2/2/4 8/14/4 6/7/4
f 1/1/5 4/4/5 2/2/5
f 5/6/6 2/2/6 6/8/6
f 5/5/1 7/9/1 3/3/1
f 3/3/2 7/10/2 8/13/2
f 7/11/3 5/6/3 6/8/3
f 2/2/4 4/4/4 8/14/4
f 1/1/5 3/3/5 4/4/5
f 5/6/6 1/1/6 2/2/6
o Cube.001
v -5.984684 -1.000000 -8.714491
v -5.984684 1.000000 -8.714491
v -4.809819 -1.000000 -10.333037
v -4.809819 1.000000 -10.333037
v -4.366137 -1.000000 -7.539626
v -4.366137 1.000000 -7.539626
v -3.191272 -1.000000 -9.158173
v -3.191272 1.000000 -9.158173
vn -0.8093 -0.0000 -0.5874
vn 0.5874 -0.0000 -0.8093
vn 0.8093 -0.0000 0.5874
vn -0.5874 -0.0000 0.8093
vn -0.0000 -1.0000 -0.0000
vn -0.0000 1.0000 -0.0000
vt 0.375000 0.000000
vt 0.375000 1.000000
vt 0.125000 0.750000
vt 0.625000 0.000000
vt 0.625000 1.000000
vt 0.875000 0.750000
vt 0.125000 0.500000
vt 0.375000 0.250000
vt 0.625000 0.250000
vt 0.875000 0.500000
vt 0.375000 0.750000
vt 0.625000 0.750000
vt 0.375000 0.500000
vt 0.625000 0.500000
s 0
f 10/18/7 11/22/7 9/15/7
f 12/23/8 15/27/8 11/22/8
f 16/28/9 13/25/9 15/27/9
f 14/26/10 9/16/10 13/25/10
f 15/27/11 9/17/11 11/21/11
f 12/24/12 14/26/12 16/28/12
f 10/18/7 12/23/7 11/22/7
f 12/23/8 16/28/8 15/27/8
f 16/28/9 14/26/9 13/25/9
f 14/26/10 10/19/10 9/16/10
f 15/27/11 13/25/11 9/17/11
f 12/24/12 10/20/12 14/26/12
o Cube.002
v 2.974980 -1.000000 -7.687854
v 2.974980 1.000000 -7.687854
v 1.344432 -1.000000 -8.846004
v 1.344432 1.000000 -8.846004
v 4.133131 -1.000000 -9.318401
v 4.133131 1.000000 -9.318401
v 2.502583 -1.000000 -10.476552
v 2.502583 1.000000 -10.476552
vn -0.5791 -0.0000 0.8153
vn -0.8153 -0.0000 -0.5791
vn 0.5791 -0.0000 -0.8153
vn 0.8153 -0.0000 0.5791
vn -0.0000 -1.0000 -0.0000
vn -0.0000 1.0000 -0.0000
vt 0.375000 0.000000
vt 0.375000 1.000000
vt 0.125000 0.750000
vt 0.625000 0.000000
vt 0.625000 1.000000
vt 0.875000 0.750000
vt 0.125000 0.500000
vt 0.375000 0.250000
vt 0.625000 0.250000
vt 0.875000 0.500000
vt 0.375000 0.750000
vt 0.625000 0.750000
vt 0.375000 0.500000
vt 0.625000 0.500000
s 0
f 18/32/13 19/36/13 17/29/13
f 20/37/14 23/41/14 19/36/14
f 24/42/15 21/39/15 23/41/15
f 22/40/16 17/30/16 21/39/16
f 23/41/17 17/31/17 19/35/17
f 20/38/18 22/40/18 24/42/18
f 18/32/13 20/37/13 19/36/13
f 20/37/14 24/42/14 23/41/14
f 24/42/15 22/40/15 21/39/15
f 22/40/16 18/33/16 17/30/16
f 23/41/17 21/39/17 17/31/17
f 20/38/18 18/34/18 22/40/18
