# Blender v3.2.0 OBJ File: ''
# www.blender.org
mtllib test-geo.mtl
o Cube_Cube.001
v -9.051851273 -9.051851273 -1.123557448
v -9.051851273 -9.051851273 -0.832093000
v -9.051851273 9.051851273 -1.123557448
v -9.051851273 9.051851273 -0.832093000
v 9.051851273 -9.051851273 -1.123557448
v 9.051851273 -9.051851273 -0.832093000
v 9.051851273 9.051851273 -1.123557448
v 9.051851273 9.051851273 -0.832093000
vt 0.250000 0.000000
vt 0.250000 0.250000
vt 0.000000 0.250000
vt 0.000000 0.000000
vt 0.250000 0.250000
vt 0.250000 0.500000
vt 0.000000 0.500000
vt 0.000000 0.250000
vt 0.500000 0.000000
vt 0.500000 0.250000
vt 0.250000 0.250000
vt 0.250000 0.000000
vt 0.500000 0.250000
vt 0.500000 0.500000
vt 0.250000 0.500000
vt 0.250000 0.250000
vt 0.000000 0.500000
vt 0.250000 0.500000
vt 0.250000 0.750000
vt 0.000000 0.750000
vt 0.500000 0.000000
vt 0.750000 0.000000
vt 0.750000 0.250000
vt 0.500000 0.250000
vn -1.0000 0.0000 0.0000
vn 0.0000 1.0000 0.0000
vn 1.0000 0.0000 0.0000
vn 0.0000 -1.0000 0.0000
vn 0.0000 0.0000 -1.0000
vn 0.0000 0.0000 1.0000
usemtl None
s off
f 1/1/1 2/2/1 4/3/1 3/4/1
f 3/5/2 4/6/2 8/7/2 7/8/2
f 7/9/3 8/10/3 6/11/3 5/12/3
f 5/13/4 6/14/4 2/15/4 1/16/4
f 3/17/5 7/18/5 5/19/5 1/20/5
f 8/21/6 4/22/6 2/23/6 6/24/6
o Cube.001_Cube.002
v -1.046690583 -2.195726871 -1.046690583
v -1.046690583 -2.195726871 1.046690583
v -1.046690583 -1.866495609 -1.046690583
v -1.046690583 -1.866495609 1.046690583
v 1.046690583 -2.195726871 -1.046690583
v 1.046690583 -2.195726871 1.046690583
v 1.046690583 -1.866495609 -1.046690583
v 1.046690583 -1.866495609 1.046690583
vt 0.750000 0.250000
vt 0.750000 0.500000
vt 0.500000 0.500000
vt 0.500000 0.250000
vt 0.500000 0.500000
vt 0.500000 0.750000
vt 0.250000 0.750000
vt 0.250000 0.500000
vt 0.750000 0.500000
vt 0.750000 0.750000
vt 0.500000 0.750000
vt 0.500000 0.500000
vt 0.250000 0.750000
vt 0.250000 1.000000
vt 0.000000 1.000000
vt 0.000000 0.750000
vt 0.750000 0.000000
vt 1.000000 0.000000
vt 1.000000 0.250000
vt 0.500000 1.000000
vn -1.0000 0.0000 0.0000
vn 0.0000 1.0000 0.0000
vn 1.0000 0.0000 0.0000
vn 0.0000 -1.0000 0.0000
vn 0.0000 0.0000 -1.0000
vn 0.0000 0.0000 1.0000
usemtl None
s off
f 9/25/7 10/26/7 12/27/7 11/28/7
f 11/29/8 12/30/8 16/31/8 15/32/8
f 15/33/9 16/34/9 14/35/9 13/36/9
f 13/37/10 14/38/10 10/39/10 9/40/10
f 11/41/11 15/42/11 13/43/11 9/25/11
f 16/31/12 12/30/12 10/44/12 14/38/12
o Cylinder
v -3.990188360 0.600000024 -1.000000000
v -3.990188360 0.600000024 1.000000000
v -3.873134136 0.588471174 -1.000000000
v -3.873134136 0.588471174 1.000000000
v -3.760578156 0.554327726 -1.000000000
v -3.760578156 0.554327726 1.000000000
v -3.656846285 0.498881787 -1.000000000
v -3.656846285 0.498881787 1.000000000
v -3.565924168 0.424264073 -1.000000000
v -3.565924168 0.424264073 1.000000000
v -3.491306543 0.333342165 -1.000000000
v -3.491306543 0.333342165 1.000000000
v -3.435860634 0.229610071 -1.000000000
v -3.435860634 0.229610071 1.000000000
v -3.401717186 0.117054217 -1.000000000
v -3.401717186 0.117054217 1.000000000
v -3.390188217 -0.000000026 -1.000000000
v -3.390188217 -0.000000026 1.000000000
v -3.401717186 -0.117054202 -1.000000000
v -3.401717186 -0.117054202 1.000000000
v -3.435860634 -0.229610041 -1.000000000
v -3.435860634 -0.229610041 1.000000000
v -3.491306543 -0.333342135 -1.000000000
v -3.491306543 -0.333342135 1.000000000
v -3.565924168 -0.424264073 -1.000000000
v -3.565924168 -0.424264073 1.000000000
v -3.656846285 -0.498881817 -1.000000000
v -3.656846285 -0.498881817 1.000000000
v -3.760578156 -0.554327726 -1.000000000
v -3.760578156 -0.554327726 1.000000000
v -3.873134136 -0.588471234 -1.000000000
v -3.873134136 -0.588471234 1.000000000
v -3.990188360 -0.600000024 -1.000000000
v -3.990188360 -0.600000024 1.000000000
v -4.107242584 -0.588471234 -1.000000000
v -4.107242584 -0.588471234 1.000000000
v -4.219798565 -0.554327726 -1.000000000
v -4.219798565 -0.554327726 1.000000000
v -4.323530674 -0.498881727 -1.000000000
v -4.323530674 -0.498881727 1.000000000
v -4.414452553 -0.424264103 -1.000000000
v -4.414452553 -0.424264103 1.000000000
v -4.489069939 -0.333342254 -1.000000000
v -4.489069939 -0.333342254 1.000000000
v -4.544516087 -0.229610160 -1.000000000
v -4.544516087 -0.229610160 1.000000000
v -4.578659534 -0.117054231 -1.000000000
v -4.578659534 -0.117054231 1.000000000
v -4.590188503 0.000000007 -1.000000000
v -4.590188503 0.000000007 1.000000000
v -4.578659534 0.117054254 -1.000000000
v -4.578659534 0.117054254 1.000000000
v -4.544516087 0.229610175 -1.000000000
v -4.544516087 0.229610175 1.000000000
v -4.489070415 0.333342046 -1.000000000
v -4.489070415 0.333342046 1.000000000
v -4.414452553 0.424264014 -1.000000000
v -4.414452553 0.424264014 1.000000000
v -4.323530674 0.498881787 -1.000000000
v -4.323530674 0.498881787 1.000000000
v -4.219798565 0.554327786 -1.000000000
v -4.219798565 0.554327786 1.000000000
v -4.107242584 0.588471234 -1.000000000
v -4.107242584 0.588471234 1.000000000
vt 0.916576 0.250000
vt 0.916576 0.500000
vt 0.902156 0.500000
vt 0.902156 0.250000
vt 0.888573 0.500000
vt 0.888573 0.250000
vt 0.876348 0.500000
vt 0.876348 0.250000
vt 0.865952 0.500000
vt 0.865952 0.250000
vt 0.855555 0.500000
vt 0.855555 0.250000
vt 0.843331 0.500000
vt 0.843331 0.250000
vt 0.829747 0.500000
vt 0.829747 0.250000
vt 0.815327 0.500000
vt 0.815327 0.250000
vt 0.800624 0.500000
vt 0.800624 0.250000
vt 0.786204 0.500000
vt 0.786204 0.250000
vt 0.772621 0.500000
vt 0.772621 0.250000
vt 0.760396 0.500000
vt 0.760396 0.250000
vt 0.750000 0.500000
vt 0.750000 0.250000
vt 0.971507 0.500000
vt 0.971507 0.750000
vt 0.961111 0.750000
vt 0.961111 0.500000
vt 0.948886 0.750000
vt 0.948886 0.500000
vt 0.935302 0.750000
vt 0.935302 0.500000
vt 0.920882 0.750000
vt 0.920882 0.500000
vt 0.906180 0.750000
vt 0.906180 0.500000
vt 0.891760 0.750000
vt 0.891760 0.500000
vt 0.878176 0.750000
vt 0.878176 0.500000
vt 0.865952 0.750000
vt 0.865952 0.500000
vt 0.853727 0.750000
vt 0.853727 0.500000
vt 0.840143 0.750000
vt 0.840143 0.500000
vt 0.825723 0.750000
vt 0.825723 0.500000
vt 0.811021 0.750000
vt 0.811021 0.500000
vt 0.796601 0.750000
vt 0.796601 0.500000
vt 0.783017 0.750000
vt 0.783017 0.500000
vt 0.770793 0.750000
vt 0.770793 0.500000
vt 0.971507 0.250000
vt 0.971507 0.500000
vt 0.959282 0.500000
vt 0.959282 0.250000
vt 0.945699 0.500000
vt 0.945699 0.250000
vt 0.609994 0.890783
vt 0.596410 0.896409
vt 0.581990 0.899278
vt 0.567288 0.899278
vt 0.552867 0.896409
vt 0.539284 0.890783
vt 0.527059 0.882615
vt 0.516663 0.872218
vt 0.508495 0.859994
vt 0.502868 0.846410
vt 0.500000 0.831990
vt 0.500000 0.817288
vt 0.502868 0.802868
vt 0.508495 0.789284
vt 0.516663 0.777059
vt 0.527059 0.766663
vt 0.539284 0.758495
vt 0.552867 0.752868
vt 0.567288 0.750000
vt 0.581990 0.750000
vt 0.596410 0.752868
vt 0.609994 0.758495
vt 0.622218 0.766663
vt 0.632615 0.777059
vt 0.640783 0.789284
vt 0.646409 0.802868
vt 0.649278 0.817288
vt 0.649278 0.831990
vt 0.646409 0.846410
vt 0.640783 0.859994
vt 0.632615 0.872218
vt 0.622218 0.882615
vt 0.931279 0.500000
vt 0.931279 0.250000
vt 0.745688 0.752868
vt 0.759271 0.758495
vt 0.771496 0.766663
vt 0.781892 0.777059
vt 0.790061 0.789284
vt 0.795687 0.802868
vt 0.798555 0.817288
vt 0.798555 0.831990
vt 0.795687 0.846410
vt 0.790061 0.859994
vt 0.781892 0.872218
vt 0.771496 0.882615
vt 0.759271 0.890783
vt 0.745688 0.896409
vt 0.731268 0.899278
vt 0.716565 0.899278
vt 0.702145 0.896409
vt 0.688562 0.890783
vt 0.676337 0.882615
vt 0.665941 0.872218
vt 0.657773 0.859994
vt 0.652146 0.846410
vt 0.649278 0.831990
vt 0.649278 0.817288
vt 0.652146 0.802868
vt 0.657773 0.789284
vt 0.665941 0.777059
vt 0.676337 0.766663
vt 0.688562 0.758495
vt 0.702145 0.752868
vt 0.716565 0.750000
vt 0.731268 0.750000
vn 0.0980 0.9952 0.0000
vn 0.2903 0.9569 0.0000
vn 0.4714 0.8819 0.0000
vn 0.6344 0.7730 0.0000
vn 0.7730 0.6344 0.0000
vn 0.8819 0.4714 0.0000
vn 0.9569 0.2903 0.0000
vn 0.9952 0.0980 0.0000
vn 0.9952 -0.0980 0.0000
vn 0.9569 -0.2903 0.0000
vn 0.8819 -0.4714 0.0000
vn 0.7730 -0.6344 0.0000
vn 0.6344 -0.7730 0.0000
vn 0.4714 -0.8819 0.0000
vn 0.2903 -0.9569 0.0000
vn 0.0980 -0.9952 0.0000
vn -0.0980 -0.9952 0.0000
vn -0.2903 -0.9569 0.0000
vn -0.4714 -0.8819 0.0000
vn -0.6344 -0.7730 0.0000
vn -0.7730 -0.6344 0.0000
vn -0.8819 -0.4714 0.0000
vn -0.9569 -0.2903 0.0000
vn -0.9952 -0.0980 0.0000
vn -0.9952 0.0980 0.0000
vn -0.9569 0.2903 0.0000
vn -0.8819 0.4714 0.0000
vn -0.7730 0.6344 0.0000
vn -0.6344 0.7730 0.0000
vn -0.4714 0.8819 0.0000
vn -0.0000 0.0000 1.0000
vn -0.2903 0.9569 0.0000
vn -0.0980 0.9952 0.0000
vn -0.0000 0.0000 -1.0000
usemtl None
s off
f 17/45/13 18/46/13 20/47/13 19/48/13
f 19/48/14 20/47/14 22/49/14 21/50/14
f 21/50/15 22/49/15 24/51/15 23/52/15
f 23/52/16 24/51/16 26/53/16 25/54/16
f 25/54/17 26/53/17 28/55/17 27/56/17
f 27/56/18 28/55/18 30/57/18 29/58/18
f 29/58/19 30/57/19 32/59/19 31/60/19
f 31/60/20 32/59/20 34/61/20 33/62/20
f 33/62/21 34/61/21 36/63/21 35/64/21
f 35/64/22 36/63/22 38/65/22 37/66/22
f 37/66/23 38/65/23 40/67/23 39/68/23
f 39/68/24 40/67/24 42/69/24 41/70/24
f 41/70/25 42/69/25 44/71/25 43/72/25
f 43/73/26 44/74/26 46/75/26 45/76/26
f 45/76/27 46/75/27 48/77/27 47/78/27
f 47/78/28 48/77/28 50/79/28 49/80/28
f 49/80/29 50/79/29 52/81/29 51/82/29
f 51/82/30 52/81/30 54/83/30 53/84/30
f 53/84/31 54/83/31 56/85/31 55/86/31
f 55/86/32 56/85/32 58/87/32 57/88/32
f 57/88/33 58/87/33 60/89/33 59/90/33
f 59/90/34 60/89/34 62/91/34 61/92/34
f 61/92/35 62/91/35 64/93/35 63/94/35
f 63/94/36 64/93/36 66/95/36 65/96/36
f 65/96/37 66/95/37 68/97/37 67/98/37
f 67/98/38 68/97/38 70/99/38 69/100/38
f 69/100/39 70/99/39 72/101/39 71/102/39
f 71/102/40 72/101/40 74/103/40 73/104/40
f 73/105/41 74/106/41 76/107/41 75/108/41
f 75/108/42 76/107/42 78/109/42 77/110/42
f 20/111/43 18/112/43 80/113/43 78/114/43 76/115/43 74/116/43 72/117/43 70/118/43 68/119/43 66/120/43 64/121/43 62/122/43 60/123/43 58/124/43 56/125/43 54/126/43 52/127/43 50/128/43 48/129/43 46/130/43 44/131/43 42/132/43 40/133/43 38/134/43 36/135/43 34/136/43 32/137/43 30/138/43 28/139/43 26/140/43 24/141/43 22/142/43
f 77/110/44 78/109/44 80/143/44 79/144/44
f 79/144/45 80/143/45 18/46/45 17/45/45
f 17/145/46 19/146/46 21/147/46 23/148/46 25/149/46 27/150/46 29/151/46 31/152/46 33/153/46 35/154/46 37/155/46 39/156/46 41/157/46 43/158/46 45/159/46 47/160/46 49/161/46 51/162/46 53/163/46 55/164/46 57/165/46 59/166/46 61/167/46 63/168/46 65/169/46 67/170/46 69/171/46 71/172/46 73/173/46 75/174/46 77/175/46 79/176/46
